<mxfile host="app.diagrams.net" modified="2022-07-05T09:24:27.675Z" agent="5.0 (Windows NT 10.0; Win64; x64) AppleWebKit/537.36 (KHTML, like Gecko) Chrome/102.0.0.0 Safari/537.36" etag="__GzwIwiKn1_TyCKMdkI" version="20.0.4" type="github">
  <diagram id="epYSbojj7yNCpU_QqBqw" name="第 1 页">
    <mxGraphModel dx="2062" dy="1122" grid="1" gridSize="10" guides="1" tooltips="1" connect="1" arrows="1" fold="1" page="1" pageScale="1" pageWidth="827" pageHeight="1169" math="0" shadow="0">
      <root>
        <mxCell id="0" />
        <mxCell id="1" parent="0" />
        <mxCell id="9UCDNFC30UPHbU_CSCfX-115" value="" style="rounded=1;whiteSpace=wrap;html=1;strokeColor=#666666;fillColor=#f5f5f5;fontColor=#333333;" vertex="1" parent="1">
          <mxGeometry x="110" y="540" width="460" height="330" as="geometry" />
        </mxCell>
        <mxCell id="9UCDNFC30UPHbU_CSCfX-87" value="" style="rounded=1;whiteSpace=wrap;html=1;strokeColor=#666666;fillColor=#f5f5f5;fontColor=#333333;" vertex="1" parent="1">
          <mxGeometry x="114" y="120" width="440" height="320" as="geometry" />
        </mxCell>
        <mxCell id="9UCDNFC30UPHbU_CSCfX-81" value="" style="rounded=1;whiteSpace=wrap;html=1;strokeColor=#97D077;" vertex="1" parent="1">
          <mxGeometry x="274" y="730" width="280" height="120" as="geometry" />
        </mxCell>
        <mxCell id="9UCDNFC30UPHbU_CSCfX-3" value="" style="shape=table;startSize=0;container=1;collapsible=0;childLayout=tableLayout;" vertex="1" parent="1">
          <mxGeometry x="140" y="230" width="120" height="160" as="geometry" />
        </mxCell>
        <mxCell id="9UCDNFC30UPHbU_CSCfX-4" value="" style="shape=tableRow;horizontal=0;startSize=0;swimlaneHead=0;swimlaneBody=0;top=0;left=0;bottom=0;right=0;collapsible=0;dropTarget=0;fillColor=none;points=[[0,0.5],[1,0.5]];portConstraint=eastwest;" vertex="1" parent="9UCDNFC30UPHbU_CSCfX-3">
          <mxGeometry width="120" height="40" as="geometry" />
        </mxCell>
        <mxCell id="9UCDNFC30UPHbU_CSCfX-5" value="c_tx_id" style="shape=partialRectangle;html=1;whiteSpace=wrap;connectable=0;overflow=hidden;fillColor=none;top=0;left=0;bottom=0;right=0;pointerEvents=1;" vertex="1" parent="9UCDNFC30UPHbU_CSCfX-4">
          <mxGeometry width="60" height="40" as="geometry">
            <mxRectangle width="60" height="40" as="alternateBounds" />
          </mxGeometry>
        </mxCell>
        <mxCell id="9UCDNFC30UPHbU_CSCfX-6" value="20" style="shape=partialRectangle;html=1;whiteSpace=wrap;connectable=0;overflow=hidden;fillColor=none;top=0;left=0;bottom=0;right=0;pointerEvents=1;" vertex="1" parent="9UCDNFC30UPHbU_CSCfX-4">
          <mxGeometry x="60" width="60" height="40" as="geometry">
            <mxRectangle width="60" height="40" as="alternateBounds" />
          </mxGeometry>
        </mxCell>
        <mxCell id="9UCDNFC30UPHbU_CSCfX-7" value="" style="shape=tableRow;horizontal=0;startSize=0;swimlaneHead=0;swimlaneBody=0;top=0;left=0;bottom=0;right=0;collapsible=0;dropTarget=0;fillColor=none;points=[[0,0.5],[1,0.5]];portConstraint=eastwest;" vertex="1" parent="9UCDNFC30UPHbU_CSCfX-3">
          <mxGeometry y="40" width="120" height="40" as="geometry" />
        </mxCell>
        <mxCell id="9UCDNFC30UPHbU_CSCfX-8" value="tx_ids" style="shape=partialRectangle;html=1;whiteSpace=wrap;connectable=0;overflow=hidden;fillColor=none;top=0;left=0;bottom=0;right=0;pointerEvents=1;" vertex="1" parent="9UCDNFC30UPHbU_CSCfX-7">
          <mxGeometry width="60" height="40" as="geometry">
            <mxRectangle width="60" height="40" as="alternateBounds" />
          </mxGeometry>
        </mxCell>
        <mxCell id="9UCDNFC30UPHbU_CSCfX-9" value="[20]" style="shape=partialRectangle;html=1;whiteSpace=wrap;connectable=0;overflow=hidden;fillColor=none;top=0;left=0;bottom=0;right=0;pointerEvents=1;" vertex="1" parent="9UCDNFC30UPHbU_CSCfX-7">
          <mxGeometry x="60" width="60" height="40" as="geometry">
            <mxRectangle width="60" height="40" as="alternateBounds" />
          </mxGeometry>
        </mxCell>
        <mxCell id="9UCDNFC30UPHbU_CSCfX-10" value="" style="shape=tableRow;horizontal=0;startSize=0;swimlaneHead=0;swimlaneBody=0;top=0;left=0;bottom=0;right=0;collapsible=0;dropTarget=0;fillColor=none;points=[[0,0.5],[1,0.5]];portConstraint=eastwest;" vertex="1" parent="9UCDNFC30UPHbU_CSCfX-3">
          <mxGeometry y="80" width="120" height="40" as="geometry" />
        </mxCell>
        <mxCell id="9UCDNFC30UPHbU_CSCfX-11" value="max_tx_id" style="shape=partialRectangle;html=1;whiteSpace=wrap;connectable=0;overflow=hidden;fillColor=none;top=0;left=0;bottom=0;right=0;pointerEvents=1;" vertex="1" parent="9UCDNFC30UPHbU_CSCfX-10">
          <mxGeometry width="60" height="40" as="geometry">
            <mxRectangle width="60" height="40" as="alternateBounds" />
          </mxGeometry>
        </mxCell>
        <mxCell id="9UCDNFC30UPHbU_CSCfX-12" value="21" style="shape=partialRectangle;html=1;whiteSpace=wrap;connectable=0;overflow=hidden;fillColor=none;top=0;left=0;bottom=0;right=0;pointerEvents=1;" vertex="1" parent="9UCDNFC30UPHbU_CSCfX-10">
          <mxGeometry x="60" width="60" height="40" as="geometry">
            <mxRectangle width="60" height="40" as="alternateBounds" />
          </mxGeometry>
        </mxCell>
        <mxCell id="9UCDNFC30UPHbU_CSCfX-13" value="" style="shape=tableRow;horizontal=0;startSize=0;swimlaneHead=0;swimlaneBody=0;top=0;left=0;bottom=0;right=0;collapsible=0;dropTarget=0;fillColor=none;points=[[0,0.5],[1,0.5]];portConstraint=eastwest;" vertex="1" parent="9UCDNFC30UPHbU_CSCfX-3">
          <mxGeometry y="120" width="120" height="40" as="geometry" />
        </mxCell>
        <mxCell id="9UCDNFC30UPHbU_CSCfX-14" value="min_tx_id" style="shape=partialRectangle;html=1;whiteSpace=wrap;connectable=0;overflow=hidden;fillColor=none;top=0;left=0;bottom=0;right=0;pointerEvents=1;" vertex="1" parent="9UCDNFC30UPHbU_CSCfX-13">
          <mxGeometry width="60" height="40" as="geometry">
            <mxRectangle width="60" height="40" as="alternateBounds" />
          </mxGeometry>
        </mxCell>
        <mxCell id="9UCDNFC30UPHbU_CSCfX-15" value="20" style="shape=partialRectangle;html=1;whiteSpace=wrap;connectable=0;overflow=hidden;fillColor=none;top=0;left=0;bottom=0;right=0;pointerEvents=1;" vertex="1" parent="9UCDNFC30UPHbU_CSCfX-13">
          <mxGeometry x="60" width="60" height="40" as="geometry">
            <mxRectangle width="60" height="40" as="alternateBounds" />
          </mxGeometry>
        </mxCell>
        <mxCell id="9UCDNFC30UPHbU_CSCfX-17" value="" style="shape=table;startSize=0;container=1;collapsible=0;childLayout=tableLayout;strokeColor=#97D077;" vertex="1" parent="1">
          <mxGeometry x="280" y="330" width="220" height="60" as="geometry" />
        </mxCell>
        <mxCell id="9UCDNFC30UPHbU_CSCfX-18" value="" style="shape=tableRow;horizontal=0;startSize=0;swimlaneHead=0;swimlaneBody=0;top=0;left=0;bottom=0;right=0;collapsible=0;dropTarget=0;fillColor=none;points=[[0,0.5],[1,0.5]];portConstraint=eastwest;strokeColor=#97D077;" vertex="1" parent="9UCDNFC30UPHbU_CSCfX-17">
          <mxGeometry width="220" height="20" as="geometry" />
        </mxCell>
        <mxCell id="9UCDNFC30UPHbU_CSCfX-19" value="数据" style="shape=partialRectangle;html=1;whiteSpace=wrap;connectable=0;overflow=hidden;fillColor=none;top=0;left=0;bottom=0;right=0;pointerEvents=1;strokeColor=#97D077;" vertex="1" parent="9UCDNFC30UPHbU_CSCfX-18">
          <mxGeometry width="100" height="20" as="geometry">
            <mxRectangle width="100" height="20" as="alternateBounds" />
          </mxGeometry>
        </mxCell>
        <mxCell id="9UCDNFC30UPHbU_CSCfX-20" value="tx_id" style="shape=partialRectangle;html=1;whiteSpace=wrap;connectable=0;overflow=hidden;fillColor=none;top=0;left=0;bottom=0;right=0;pointerEvents=1;strokeColor=#97D077;" vertex="1" parent="9UCDNFC30UPHbU_CSCfX-18">
          <mxGeometry x="100" width="60" height="20" as="geometry">
            <mxRectangle width="60" height="20" as="alternateBounds" />
          </mxGeometry>
        </mxCell>
        <mxCell id="9UCDNFC30UPHbU_CSCfX-21" value="roll_ptr" style="shape=partialRectangle;html=1;whiteSpace=wrap;connectable=0;overflow=hidden;fillColor=none;top=0;left=0;bottom=0;right=0;pointerEvents=1;strokeColor=#97D077;" vertex="1" parent="9UCDNFC30UPHbU_CSCfX-18">
          <mxGeometry x="160" width="60" height="20" as="geometry">
            <mxRectangle width="60" height="20" as="alternateBounds" />
          </mxGeometry>
        </mxCell>
        <mxCell id="9UCDNFC30UPHbU_CSCfX-22" value="" style="shape=tableRow;horizontal=0;startSize=0;swimlaneHead=0;swimlaneBody=0;top=0;left=0;bottom=0;right=0;collapsible=0;dropTarget=0;fillColor=none;points=[[0,0.5],[1,0.5]];portConstraint=eastwest;strokeColor=#97D077;" vertex="1" parent="9UCDNFC30UPHbU_CSCfX-17">
          <mxGeometry y="20" width="220" height="40" as="geometry" />
        </mxCell>
        <mxCell id="9UCDNFC30UPHbU_CSCfX-23" value="abc" style="shape=partialRectangle;html=1;whiteSpace=wrap;connectable=0;overflow=hidden;fillColor=none;top=0;left=0;bottom=0;right=0;pointerEvents=1;strokeColor=#97D077;" vertex="1" parent="9UCDNFC30UPHbU_CSCfX-22">
          <mxGeometry width="100" height="40" as="geometry">
            <mxRectangle width="100" height="40" as="alternateBounds" />
          </mxGeometry>
        </mxCell>
        <mxCell id="9UCDNFC30UPHbU_CSCfX-24" value="19" style="shape=partialRectangle;html=1;whiteSpace=wrap;connectable=0;overflow=hidden;fillColor=none;top=0;left=0;bottom=0;right=0;pointerEvents=1;strokeColor=#97D077;" vertex="1" parent="9UCDNFC30UPHbU_CSCfX-22">
          <mxGeometry x="100" width="60" height="40" as="geometry">
            <mxRectangle width="60" height="40" as="alternateBounds" />
          </mxGeometry>
        </mxCell>
        <mxCell id="9UCDNFC30UPHbU_CSCfX-25" value="" style="shape=partialRectangle;html=1;whiteSpace=wrap;connectable=0;overflow=hidden;fillColor=none;top=0;left=0;bottom=0;right=0;pointerEvents=1;strokeColor=#97D077;" vertex="1" parent="9UCDNFC30UPHbU_CSCfX-22">
          <mxGeometry x="160" width="60" height="40" as="geometry">
            <mxRectangle width="60" height="40" as="alternateBounds" />
          </mxGeometry>
        </mxCell>
        <mxCell id="9UCDNFC30UPHbU_CSCfX-48" value="" style="shape=table;startSize=0;container=1;collapsible=0;childLayout=tableLayout;" vertex="1" parent="1">
          <mxGeometry x="130" y="660" width="120" height="160" as="geometry" />
        </mxCell>
        <mxCell id="9UCDNFC30UPHbU_CSCfX-49" value="" style="shape=tableRow;horizontal=0;startSize=0;swimlaneHead=0;swimlaneBody=0;top=0;left=0;bottom=0;right=0;collapsible=0;dropTarget=0;fillColor=none;points=[[0,0.5],[1,0.5]];portConstraint=eastwest;" vertex="1" parent="9UCDNFC30UPHbU_CSCfX-48">
          <mxGeometry width="120" height="40" as="geometry" />
        </mxCell>
        <mxCell id="9UCDNFC30UPHbU_CSCfX-50" value="c_tx_id" style="shape=partialRectangle;html=1;whiteSpace=wrap;connectable=0;overflow=hidden;fillColor=none;top=0;left=0;bottom=0;right=0;pointerEvents=1;" vertex="1" parent="9UCDNFC30UPHbU_CSCfX-49">
          <mxGeometry width="60" height="40" as="geometry">
            <mxRectangle width="60" height="40" as="alternateBounds" />
          </mxGeometry>
        </mxCell>
        <mxCell id="9UCDNFC30UPHbU_CSCfX-51" value="20" style="shape=partialRectangle;html=1;whiteSpace=wrap;connectable=0;overflow=hidden;fillColor=none;top=0;left=0;bottom=0;right=0;pointerEvents=1;" vertex="1" parent="9UCDNFC30UPHbU_CSCfX-49">
          <mxGeometry x="60" width="60" height="40" as="geometry">
            <mxRectangle width="60" height="40" as="alternateBounds" />
          </mxGeometry>
        </mxCell>
        <mxCell id="9UCDNFC30UPHbU_CSCfX-52" value="" style="shape=tableRow;horizontal=0;startSize=0;swimlaneHead=0;swimlaneBody=0;top=0;left=0;bottom=0;right=0;collapsible=0;dropTarget=0;fillColor=none;points=[[0,0.5],[1,0.5]];portConstraint=eastwest;" vertex="1" parent="9UCDNFC30UPHbU_CSCfX-48">
          <mxGeometry y="40" width="120" height="40" as="geometry" />
        </mxCell>
        <mxCell id="9UCDNFC30UPHbU_CSCfX-53" value="tx_ids" style="shape=partialRectangle;html=1;whiteSpace=wrap;connectable=0;overflow=hidden;fillColor=none;top=0;left=0;bottom=0;right=0;pointerEvents=1;" vertex="1" parent="9UCDNFC30UPHbU_CSCfX-52">
          <mxGeometry width="60" height="40" as="geometry">
            <mxRectangle width="60" height="40" as="alternateBounds" />
          </mxGeometry>
        </mxCell>
        <mxCell id="9UCDNFC30UPHbU_CSCfX-54" value="[20]" style="shape=partialRectangle;html=1;whiteSpace=wrap;connectable=0;overflow=hidden;fillColor=none;top=0;left=0;bottom=0;right=0;pointerEvents=1;" vertex="1" parent="9UCDNFC30UPHbU_CSCfX-52">
          <mxGeometry x="60" width="60" height="40" as="geometry">
            <mxRectangle width="60" height="40" as="alternateBounds" />
          </mxGeometry>
        </mxCell>
        <mxCell id="9UCDNFC30UPHbU_CSCfX-55" value="" style="shape=tableRow;horizontal=0;startSize=0;swimlaneHead=0;swimlaneBody=0;top=0;left=0;bottom=0;right=0;collapsible=0;dropTarget=0;fillColor=none;points=[[0,0.5],[1,0.5]];portConstraint=eastwest;" vertex="1" parent="9UCDNFC30UPHbU_CSCfX-48">
          <mxGeometry y="80" width="120" height="40" as="geometry" />
        </mxCell>
        <mxCell id="9UCDNFC30UPHbU_CSCfX-56" value="max_tx_id" style="shape=partialRectangle;html=1;whiteSpace=wrap;connectable=0;overflow=hidden;fillColor=none;top=0;left=0;bottom=0;right=0;pointerEvents=1;" vertex="1" parent="9UCDNFC30UPHbU_CSCfX-55">
          <mxGeometry width="60" height="40" as="geometry">
            <mxRectangle width="60" height="40" as="alternateBounds" />
          </mxGeometry>
        </mxCell>
        <mxCell id="9UCDNFC30UPHbU_CSCfX-57" value="21" style="shape=partialRectangle;html=1;whiteSpace=wrap;connectable=0;overflow=hidden;fillColor=none;top=0;left=0;bottom=0;right=0;pointerEvents=1;" vertex="1" parent="9UCDNFC30UPHbU_CSCfX-55">
          <mxGeometry x="60" width="60" height="40" as="geometry">
            <mxRectangle width="60" height="40" as="alternateBounds" />
          </mxGeometry>
        </mxCell>
        <mxCell id="9UCDNFC30UPHbU_CSCfX-58" value="" style="shape=tableRow;horizontal=0;startSize=0;swimlaneHead=0;swimlaneBody=0;top=0;left=0;bottom=0;right=0;collapsible=0;dropTarget=0;fillColor=none;points=[[0,0.5],[1,0.5]];portConstraint=eastwest;" vertex="1" parent="9UCDNFC30UPHbU_CSCfX-48">
          <mxGeometry y="120" width="120" height="40" as="geometry" />
        </mxCell>
        <mxCell id="9UCDNFC30UPHbU_CSCfX-59" value="min_tx_id" style="shape=partialRectangle;html=1;whiteSpace=wrap;connectable=0;overflow=hidden;fillColor=none;top=0;left=0;bottom=0;right=0;pointerEvents=1;" vertex="1" parent="9UCDNFC30UPHbU_CSCfX-58">
          <mxGeometry width="60" height="40" as="geometry">
            <mxRectangle width="60" height="40" as="alternateBounds" />
          </mxGeometry>
        </mxCell>
        <mxCell id="9UCDNFC30UPHbU_CSCfX-60" value="20" style="shape=partialRectangle;html=1;whiteSpace=wrap;connectable=0;overflow=hidden;fillColor=none;top=0;left=0;bottom=0;right=0;pointerEvents=1;" vertex="1" parent="9UCDNFC30UPHbU_CSCfX-58">
          <mxGeometry x="60" width="60" height="40" as="geometry">
            <mxRectangle width="60" height="40" as="alternateBounds" />
          </mxGeometry>
        </mxCell>
        <mxCell id="9UCDNFC30UPHbU_CSCfX-61" value="" style="shape=table;startSize=0;container=1;collapsible=0;childLayout=tableLayout;strokeColor=#97D077;" vertex="1" parent="1">
          <mxGeometry x="290" y="650" width="220" height="60" as="geometry" />
        </mxCell>
        <mxCell id="9UCDNFC30UPHbU_CSCfX-62" value="" style="shape=tableRow;horizontal=0;startSize=0;swimlaneHead=0;swimlaneBody=0;top=0;left=0;bottom=0;right=0;collapsible=0;dropTarget=0;fillColor=none;points=[[0,0.5],[1,0.5]];portConstraint=eastwest;strokeColor=#97D077;" vertex="1" parent="9UCDNFC30UPHbU_CSCfX-61">
          <mxGeometry width="220" height="20" as="geometry" />
        </mxCell>
        <mxCell id="9UCDNFC30UPHbU_CSCfX-63" value="数据" style="shape=partialRectangle;html=1;whiteSpace=wrap;connectable=0;overflow=hidden;fillColor=none;top=0;left=0;bottom=0;right=0;pointerEvents=1;strokeColor=#97D077;" vertex="1" parent="9UCDNFC30UPHbU_CSCfX-62">
          <mxGeometry width="100" height="20" as="geometry">
            <mxRectangle width="100" height="20" as="alternateBounds" />
          </mxGeometry>
        </mxCell>
        <mxCell id="9UCDNFC30UPHbU_CSCfX-64" value="tx_id" style="shape=partialRectangle;html=1;whiteSpace=wrap;connectable=0;overflow=hidden;fillColor=none;top=0;left=0;bottom=0;right=0;pointerEvents=1;strokeColor=#97D077;" vertex="1" parent="9UCDNFC30UPHbU_CSCfX-62">
          <mxGeometry x="100" width="60" height="20" as="geometry">
            <mxRectangle width="60" height="20" as="alternateBounds" />
          </mxGeometry>
        </mxCell>
        <mxCell id="9UCDNFC30UPHbU_CSCfX-65" value="roll_ptr" style="shape=partialRectangle;html=1;whiteSpace=wrap;connectable=0;overflow=hidden;fillColor=none;top=0;left=0;bottom=0;right=0;pointerEvents=1;strokeColor=#97D077;" vertex="1" parent="9UCDNFC30UPHbU_CSCfX-62">
          <mxGeometry x="160" width="60" height="20" as="geometry">
            <mxRectangle width="60" height="20" as="alternateBounds" />
          </mxGeometry>
        </mxCell>
        <mxCell id="9UCDNFC30UPHbU_CSCfX-66" value="" style="shape=tableRow;horizontal=0;startSize=0;swimlaneHead=0;swimlaneBody=0;top=0;left=0;bottom=0;right=0;collapsible=0;dropTarget=0;fillColor=none;points=[[0,0.5],[1,0.5]];portConstraint=eastwest;strokeColor=#97D077;" vertex="1" parent="9UCDNFC30UPHbU_CSCfX-61">
          <mxGeometry y="20" width="220" height="40" as="geometry" />
        </mxCell>
        <mxCell id="9UCDNFC30UPHbU_CSCfX-67" value="def" style="shape=partialRectangle;html=1;whiteSpace=wrap;connectable=0;overflow=hidden;fillColor=none;top=0;left=0;bottom=0;right=0;pointerEvents=1;strokeColor=#97D077;" vertex="1" parent="9UCDNFC30UPHbU_CSCfX-66">
          <mxGeometry width="100" height="40" as="geometry">
            <mxRectangle width="100" height="40" as="alternateBounds" />
          </mxGeometry>
        </mxCell>
        <mxCell id="9UCDNFC30UPHbU_CSCfX-68" value="20" style="shape=partialRectangle;html=1;whiteSpace=wrap;connectable=0;overflow=hidden;fillColor=none;top=0;left=0;bottom=0;right=0;pointerEvents=1;strokeColor=#97D077;" vertex="1" parent="9UCDNFC30UPHbU_CSCfX-66">
          <mxGeometry x="100" width="60" height="40" as="geometry">
            <mxRectangle width="60" height="40" as="alternateBounds" />
          </mxGeometry>
        </mxCell>
        <mxCell id="9UCDNFC30UPHbU_CSCfX-69" value="1" style="shape=partialRectangle;html=1;whiteSpace=wrap;connectable=0;overflow=hidden;fillColor=none;top=0;left=0;bottom=0;right=0;pointerEvents=1;strokeColor=#97D077;" vertex="1" parent="9UCDNFC30UPHbU_CSCfX-66">
          <mxGeometry x="160" width="60" height="40" as="geometry">
            <mxRectangle width="60" height="40" as="alternateBounds" />
          </mxGeometry>
        </mxCell>
        <mxCell id="9UCDNFC30UPHbU_CSCfX-70" value="" style="shape=table;startSize=0;container=1;collapsible=0;childLayout=tableLayout;strokeColor=#97D077;" vertex="1" parent="1">
          <mxGeometry x="290" y="770" width="220" height="60" as="geometry" />
        </mxCell>
        <mxCell id="9UCDNFC30UPHbU_CSCfX-71" value="" style="shape=tableRow;horizontal=0;startSize=0;swimlaneHead=0;swimlaneBody=0;top=0;left=0;bottom=0;right=0;collapsible=0;dropTarget=0;fillColor=none;points=[[0,0.5],[1,0.5]];portConstraint=eastwest;strokeColor=#97D077;" vertex="1" parent="9UCDNFC30UPHbU_CSCfX-70">
          <mxGeometry width="220" height="20" as="geometry" />
        </mxCell>
        <mxCell id="9UCDNFC30UPHbU_CSCfX-72" value="数据" style="shape=partialRectangle;html=1;whiteSpace=wrap;connectable=0;overflow=hidden;fillColor=none;top=0;left=0;bottom=0;right=0;pointerEvents=1;strokeColor=#97D077;" vertex="1" parent="9UCDNFC30UPHbU_CSCfX-71">
          <mxGeometry width="100" height="20" as="geometry">
            <mxRectangle width="100" height="20" as="alternateBounds" />
          </mxGeometry>
        </mxCell>
        <mxCell id="9UCDNFC30UPHbU_CSCfX-73" value="tx_id" style="shape=partialRectangle;html=1;whiteSpace=wrap;connectable=0;overflow=hidden;fillColor=none;top=0;left=0;bottom=0;right=0;pointerEvents=1;strokeColor=#97D077;" vertex="1" parent="9UCDNFC30UPHbU_CSCfX-71">
          <mxGeometry x="100" width="60" height="20" as="geometry">
            <mxRectangle width="60" height="20" as="alternateBounds" />
          </mxGeometry>
        </mxCell>
        <mxCell id="9UCDNFC30UPHbU_CSCfX-74" value="roll_ptr" style="shape=partialRectangle;html=1;whiteSpace=wrap;connectable=0;overflow=hidden;fillColor=none;top=0;left=0;bottom=0;right=0;pointerEvents=1;strokeColor=#97D077;" vertex="1" parent="9UCDNFC30UPHbU_CSCfX-71">
          <mxGeometry x="160" width="60" height="20" as="geometry">
            <mxRectangle width="60" height="20" as="alternateBounds" />
          </mxGeometry>
        </mxCell>
        <mxCell id="9UCDNFC30UPHbU_CSCfX-75" value="" style="shape=tableRow;horizontal=0;startSize=0;swimlaneHead=0;swimlaneBody=0;top=0;left=0;bottom=0;right=0;collapsible=0;dropTarget=0;fillColor=none;points=[[0,0.5],[1,0.5]];portConstraint=eastwest;strokeColor=#97D077;" vertex="1" parent="9UCDNFC30UPHbU_CSCfX-70">
          <mxGeometry y="20" width="220" height="40" as="geometry" />
        </mxCell>
        <mxCell id="9UCDNFC30UPHbU_CSCfX-76" value="abc" style="shape=partialRectangle;html=1;whiteSpace=wrap;connectable=0;overflow=hidden;fillColor=none;top=0;left=0;bottom=0;right=0;pointerEvents=1;strokeColor=#97D077;" vertex="1" parent="9UCDNFC30UPHbU_CSCfX-75">
          <mxGeometry width="100" height="40" as="geometry">
            <mxRectangle width="100" height="40" as="alternateBounds" />
          </mxGeometry>
        </mxCell>
        <mxCell id="9UCDNFC30UPHbU_CSCfX-77" value="19" style="shape=partialRectangle;html=1;whiteSpace=wrap;connectable=0;overflow=hidden;fillColor=none;top=0;left=0;bottom=0;right=0;pointerEvents=1;strokeColor=#97D077;" vertex="1" parent="9UCDNFC30UPHbU_CSCfX-75">
          <mxGeometry x="100" width="60" height="40" as="geometry">
            <mxRectangle width="60" height="40" as="alternateBounds" />
          </mxGeometry>
        </mxCell>
        <mxCell id="9UCDNFC30UPHbU_CSCfX-78" value="" style="shape=partialRectangle;html=1;whiteSpace=wrap;connectable=0;overflow=hidden;fillColor=none;top=0;left=0;bottom=0;right=0;pointerEvents=1;strokeColor=#97D077;" vertex="1" parent="9UCDNFC30UPHbU_CSCfX-75">
          <mxGeometry x="160" width="60" height="40" as="geometry">
            <mxRectangle width="60" height="40" as="alternateBounds" />
          </mxGeometry>
        </mxCell>
        <mxCell id="9UCDNFC30UPHbU_CSCfX-80" style="edgeStyle=orthogonalEdgeStyle;rounded=0;orthogonalLoop=1;jettySize=auto;html=1;exitX=1;exitY=0.5;exitDx=0;exitDy=0;entryX=1;entryY=0.5;entryDx=0;entryDy=0;" edge="1" parent="1" source="9UCDNFC30UPHbU_CSCfX-66" target="9UCDNFC30UPHbU_CSCfX-75">
          <mxGeometry relative="1" as="geometry" />
        </mxCell>
        <mxCell id="9UCDNFC30UPHbU_CSCfX-82" value="记录字段" style="text;strokeColor=none;fillColor=none;html=1;fontSize=24;fontStyle=1;verticalAlign=middle;align=center;" vertex="1" parent="1">
          <mxGeometry x="340" y="280" width="100" height="40" as="geometry" />
        </mxCell>
        <mxCell id="9UCDNFC30UPHbU_CSCfX-83" value="读视图" style="text;strokeColor=none;fillColor=none;html=1;fontSize=24;fontStyle=1;verticalAlign=middle;align=center;" vertex="1" parent="1">
          <mxGeometry x="150" y="180" width="100" height="40" as="geometry" />
        </mxCell>
        <mxCell id="9UCDNFC30UPHbU_CSCfX-84" value="读视图" style="text;strokeColor=none;fillColor=none;html=1;fontSize=24;fontStyle=1;verticalAlign=middle;align=center;" vertex="1" parent="1">
          <mxGeometry x="140" y="610" width="100" height="40" as="geometry" />
        </mxCell>
        <mxCell id="9UCDNFC30UPHbU_CSCfX-85" value="记录字段" style="text;strokeColor=none;fillColor=none;html=1;fontSize=24;fontStyle=1;verticalAlign=middle;align=center;" vertex="1" parent="1">
          <mxGeometry x="340" y="600" width="100" height="40" as="geometry" />
        </mxCell>
        <mxCell id="9UCDNFC30UPHbU_CSCfX-86" value="undolog" style="text;strokeColor=none;fillColor=none;html=1;fontSize=24;fontStyle=1;verticalAlign=middle;align=center;" vertex="1" parent="1">
          <mxGeometry x="350" y="730" width="100" height="40" as="geometry" />
        </mxCell>
        <mxCell id="9UCDNFC30UPHbU_CSCfX-88" value="事物A" style="text;strokeColor=none;fillColor=none;html=1;fontSize=24;fontStyle=1;verticalAlign=middle;align=center;" vertex="1" parent="1">
          <mxGeometry x="284" y="130" width="100" height="40" as="geometry" />
        </mxCell>
        <mxCell id="9UCDNFC30UPHbU_CSCfX-89" value="" style="rounded=1;whiteSpace=wrap;html=1;strokeColor=#666666;fillColor=#f5f5f5;fontColor=#333333;" vertex="1" parent="1">
          <mxGeometry x="620" y="120" width="440" height="320" as="geometry" />
        </mxCell>
        <mxCell id="9UCDNFC30UPHbU_CSCfX-90" value="" style="shape=table;startSize=0;container=1;collapsible=0;childLayout=tableLayout;" vertex="1" parent="1">
          <mxGeometry x="646" y="230" width="120" height="160" as="geometry" />
        </mxCell>
        <mxCell id="9UCDNFC30UPHbU_CSCfX-91" value="" style="shape=tableRow;horizontal=0;startSize=0;swimlaneHead=0;swimlaneBody=0;top=0;left=0;bottom=0;right=0;collapsible=0;dropTarget=0;fillColor=none;points=[[0,0.5],[1,0.5]];portConstraint=eastwest;" vertex="1" parent="9UCDNFC30UPHbU_CSCfX-90">
          <mxGeometry width="120" height="40" as="geometry" />
        </mxCell>
        <mxCell id="9UCDNFC30UPHbU_CSCfX-92" value="c_tx_id" style="shape=partialRectangle;html=1;whiteSpace=wrap;connectable=0;overflow=hidden;fillColor=none;top=0;left=0;bottom=0;right=0;pointerEvents=1;" vertex="1" parent="9UCDNFC30UPHbU_CSCfX-91">
          <mxGeometry width="60" height="40" as="geometry">
            <mxRectangle width="60" height="40" as="alternateBounds" />
          </mxGeometry>
        </mxCell>
        <mxCell id="9UCDNFC30UPHbU_CSCfX-93" value="21" style="shape=partialRectangle;html=1;whiteSpace=wrap;connectable=0;overflow=hidden;fillColor=none;top=0;left=0;bottom=0;right=0;pointerEvents=1;" vertex="1" parent="9UCDNFC30UPHbU_CSCfX-91">
          <mxGeometry x="60" width="60" height="40" as="geometry">
            <mxRectangle width="60" height="40" as="alternateBounds" />
          </mxGeometry>
        </mxCell>
        <mxCell id="9UCDNFC30UPHbU_CSCfX-94" value="" style="shape=tableRow;horizontal=0;startSize=0;swimlaneHead=0;swimlaneBody=0;top=0;left=0;bottom=0;right=0;collapsible=0;dropTarget=0;fillColor=none;points=[[0,0.5],[1,0.5]];portConstraint=eastwest;" vertex="1" parent="9UCDNFC30UPHbU_CSCfX-90">
          <mxGeometry y="40" width="120" height="40" as="geometry" />
        </mxCell>
        <mxCell id="9UCDNFC30UPHbU_CSCfX-95" value="tx_ids" style="shape=partialRectangle;html=1;whiteSpace=wrap;connectable=0;overflow=hidden;fillColor=none;top=0;left=0;bottom=0;right=0;pointerEvents=1;" vertex="1" parent="9UCDNFC30UPHbU_CSCfX-94">
          <mxGeometry width="60" height="40" as="geometry">
            <mxRectangle width="60" height="40" as="alternateBounds" />
          </mxGeometry>
        </mxCell>
        <mxCell id="9UCDNFC30UPHbU_CSCfX-96" value="[20,21]" style="shape=partialRectangle;html=1;whiteSpace=wrap;connectable=0;overflow=hidden;fillColor=none;top=0;left=0;bottom=0;right=0;pointerEvents=1;" vertex="1" parent="9UCDNFC30UPHbU_CSCfX-94">
          <mxGeometry x="60" width="60" height="40" as="geometry">
            <mxRectangle width="60" height="40" as="alternateBounds" />
          </mxGeometry>
        </mxCell>
        <mxCell id="9UCDNFC30UPHbU_CSCfX-97" value="" style="shape=tableRow;horizontal=0;startSize=0;swimlaneHead=0;swimlaneBody=0;top=0;left=0;bottom=0;right=0;collapsible=0;dropTarget=0;fillColor=none;points=[[0,0.5],[1,0.5]];portConstraint=eastwest;" vertex="1" parent="9UCDNFC30UPHbU_CSCfX-90">
          <mxGeometry y="80" width="120" height="40" as="geometry" />
        </mxCell>
        <mxCell id="9UCDNFC30UPHbU_CSCfX-98" value="max_tx_id" style="shape=partialRectangle;html=1;whiteSpace=wrap;connectable=0;overflow=hidden;fillColor=none;top=0;left=0;bottom=0;right=0;pointerEvents=1;" vertex="1" parent="9UCDNFC30UPHbU_CSCfX-97">
          <mxGeometry width="60" height="40" as="geometry">
            <mxRectangle width="60" height="40" as="alternateBounds" />
          </mxGeometry>
        </mxCell>
        <mxCell id="9UCDNFC30UPHbU_CSCfX-99" value="22" style="shape=partialRectangle;html=1;whiteSpace=wrap;connectable=0;overflow=hidden;fillColor=none;top=0;left=0;bottom=0;right=0;pointerEvents=1;" vertex="1" parent="9UCDNFC30UPHbU_CSCfX-97">
          <mxGeometry x="60" width="60" height="40" as="geometry">
            <mxRectangle width="60" height="40" as="alternateBounds" />
          </mxGeometry>
        </mxCell>
        <mxCell id="9UCDNFC30UPHbU_CSCfX-100" value="" style="shape=tableRow;horizontal=0;startSize=0;swimlaneHead=0;swimlaneBody=0;top=0;left=0;bottom=0;right=0;collapsible=0;dropTarget=0;fillColor=none;points=[[0,0.5],[1,0.5]];portConstraint=eastwest;" vertex="1" parent="9UCDNFC30UPHbU_CSCfX-90">
          <mxGeometry y="120" width="120" height="40" as="geometry" />
        </mxCell>
        <mxCell id="9UCDNFC30UPHbU_CSCfX-101" value="min_tx_id" style="shape=partialRectangle;html=1;whiteSpace=wrap;connectable=0;overflow=hidden;fillColor=none;top=0;left=0;bottom=0;right=0;pointerEvents=1;" vertex="1" parent="9UCDNFC30UPHbU_CSCfX-100">
          <mxGeometry width="60" height="40" as="geometry">
            <mxRectangle width="60" height="40" as="alternateBounds" />
          </mxGeometry>
        </mxCell>
        <mxCell id="9UCDNFC30UPHbU_CSCfX-102" value="20" style="shape=partialRectangle;html=1;whiteSpace=wrap;connectable=0;overflow=hidden;fillColor=none;top=0;left=0;bottom=0;right=0;pointerEvents=1;" vertex="1" parent="9UCDNFC30UPHbU_CSCfX-100">
          <mxGeometry x="60" width="60" height="40" as="geometry">
            <mxRectangle width="60" height="40" as="alternateBounds" />
          </mxGeometry>
        </mxCell>
        <mxCell id="9UCDNFC30UPHbU_CSCfX-103" value="" style="shape=table;startSize=0;container=1;collapsible=0;childLayout=tableLayout;strokeColor=#97D077;" vertex="1" parent="1">
          <mxGeometry x="786" y="330" width="220" height="60" as="geometry" />
        </mxCell>
        <mxCell id="9UCDNFC30UPHbU_CSCfX-104" value="" style="shape=tableRow;horizontal=0;startSize=0;swimlaneHead=0;swimlaneBody=0;top=0;left=0;bottom=0;right=0;collapsible=0;dropTarget=0;fillColor=none;points=[[0,0.5],[1,0.5]];portConstraint=eastwest;strokeColor=#97D077;" vertex="1" parent="9UCDNFC30UPHbU_CSCfX-103">
          <mxGeometry width="220" height="20" as="geometry" />
        </mxCell>
        <mxCell id="9UCDNFC30UPHbU_CSCfX-105" value="数据" style="shape=partialRectangle;html=1;whiteSpace=wrap;connectable=0;overflow=hidden;fillColor=none;top=0;left=0;bottom=0;right=0;pointerEvents=1;strokeColor=#97D077;" vertex="1" parent="9UCDNFC30UPHbU_CSCfX-104">
          <mxGeometry width="100" height="20" as="geometry">
            <mxRectangle width="100" height="20" as="alternateBounds" />
          </mxGeometry>
        </mxCell>
        <mxCell id="9UCDNFC30UPHbU_CSCfX-106" value="tx_id" style="shape=partialRectangle;html=1;whiteSpace=wrap;connectable=0;overflow=hidden;fillColor=none;top=0;left=0;bottom=0;right=0;pointerEvents=1;strokeColor=#97D077;" vertex="1" parent="9UCDNFC30UPHbU_CSCfX-104">
          <mxGeometry x="100" width="60" height="20" as="geometry">
            <mxRectangle width="60" height="20" as="alternateBounds" />
          </mxGeometry>
        </mxCell>
        <mxCell id="9UCDNFC30UPHbU_CSCfX-107" value="roll_ptr" style="shape=partialRectangle;html=1;whiteSpace=wrap;connectable=0;overflow=hidden;fillColor=none;top=0;left=0;bottom=0;right=0;pointerEvents=1;strokeColor=#97D077;" vertex="1" parent="9UCDNFC30UPHbU_CSCfX-104">
          <mxGeometry x="160" width="60" height="20" as="geometry">
            <mxRectangle width="60" height="20" as="alternateBounds" />
          </mxGeometry>
        </mxCell>
        <mxCell id="9UCDNFC30UPHbU_CSCfX-108" value="" style="shape=tableRow;horizontal=0;startSize=0;swimlaneHead=0;swimlaneBody=0;top=0;left=0;bottom=0;right=0;collapsible=0;dropTarget=0;fillColor=none;points=[[0,0.5],[1,0.5]];portConstraint=eastwest;strokeColor=#97D077;" vertex="1" parent="9UCDNFC30UPHbU_CSCfX-103">
          <mxGeometry y="20" width="220" height="40" as="geometry" />
        </mxCell>
        <mxCell id="9UCDNFC30UPHbU_CSCfX-109" value="abc" style="shape=partialRectangle;html=1;whiteSpace=wrap;connectable=0;overflow=hidden;fillColor=none;top=0;left=0;bottom=0;right=0;pointerEvents=1;strokeColor=#97D077;" vertex="1" parent="9UCDNFC30UPHbU_CSCfX-108">
          <mxGeometry width="100" height="40" as="geometry">
            <mxRectangle width="100" height="40" as="alternateBounds" />
          </mxGeometry>
        </mxCell>
        <mxCell id="9UCDNFC30UPHbU_CSCfX-110" value="19" style="shape=partialRectangle;html=1;whiteSpace=wrap;connectable=0;overflow=hidden;fillColor=none;top=0;left=0;bottom=0;right=0;pointerEvents=1;strokeColor=#97D077;" vertex="1" parent="9UCDNFC30UPHbU_CSCfX-108">
          <mxGeometry x="100" width="60" height="40" as="geometry">
            <mxRectangle width="60" height="40" as="alternateBounds" />
          </mxGeometry>
        </mxCell>
        <mxCell id="9UCDNFC30UPHbU_CSCfX-111" value="" style="shape=partialRectangle;html=1;whiteSpace=wrap;connectable=0;overflow=hidden;fillColor=none;top=0;left=0;bottom=0;right=0;pointerEvents=1;strokeColor=#97D077;" vertex="1" parent="9UCDNFC30UPHbU_CSCfX-108">
          <mxGeometry x="160" width="60" height="40" as="geometry">
            <mxRectangle width="60" height="40" as="alternateBounds" />
          </mxGeometry>
        </mxCell>
        <mxCell id="9UCDNFC30UPHbU_CSCfX-112" value="记录字段" style="text;strokeColor=none;fillColor=none;html=1;fontSize=24;fontStyle=1;verticalAlign=middle;align=center;" vertex="1" parent="1">
          <mxGeometry x="846" y="280" width="100" height="40" as="geometry" />
        </mxCell>
        <mxCell id="9UCDNFC30UPHbU_CSCfX-113" value="读视图" style="text;strokeColor=none;fillColor=none;html=1;fontSize=24;fontStyle=1;verticalAlign=middle;align=center;" vertex="1" parent="1">
          <mxGeometry x="656" y="180" width="100" height="40" as="geometry" />
        </mxCell>
        <mxCell id="9UCDNFC30UPHbU_CSCfX-114" value="事物B" style="text;strokeColor=none;fillColor=none;html=1;fontSize=24;fontStyle=1;verticalAlign=middle;align=center;" vertex="1" parent="1">
          <mxGeometry x="790" y="130" width="100" height="40" as="geometry" />
        </mxCell>
        <mxCell id="9UCDNFC30UPHbU_CSCfX-116" value="事物A" style="text;strokeColor=none;fillColor=none;html=1;fontSize=24;fontStyle=1;verticalAlign=middle;align=center;" vertex="1" parent="1">
          <mxGeometry x="280" y="545" width="100" height="40" as="geometry" />
        </mxCell>
        <mxCell id="9UCDNFC30UPHbU_CSCfX-130" value="" style="rounded=1;whiteSpace=wrap;html=1;strokeColor=#666666;fillColor=#f5f5f5;fontColor=#333333;" vertex="1" parent="1">
          <mxGeometry x="656" y="540" width="464" height="320" as="geometry" />
        </mxCell>
        <mxCell id="9UCDNFC30UPHbU_CSCfX-131" value="" style="shape=table;startSize=0;container=1;collapsible=0;childLayout=tableLayout;" vertex="1" parent="1">
          <mxGeometry x="682" y="650" width="120" height="160" as="geometry" />
        </mxCell>
        <mxCell id="9UCDNFC30UPHbU_CSCfX-132" value="" style="shape=tableRow;horizontal=0;startSize=0;swimlaneHead=0;swimlaneBody=0;top=0;left=0;bottom=0;right=0;collapsible=0;dropTarget=0;fillColor=none;points=[[0,0.5],[1,0.5]];portConstraint=eastwest;" vertex="1" parent="9UCDNFC30UPHbU_CSCfX-131">
          <mxGeometry width="120" height="40" as="geometry" />
        </mxCell>
        <mxCell id="9UCDNFC30UPHbU_CSCfX-133" value="c_tx_id" style="shape=partialRectangle;html=1;whiteSpace=wrap;connectable=0;overflow=hidden;fillColor=none;top=0;left=0;bottom=0;right=0;pointerEvents=1;" vertex="1" parent="9UCDNFC30UPHbU_CSCfX-132">
          <mxGeometry width="60" height="40" as="geometry">
            <mxRectangle width="60" height="40" as="alternateBounds" />
          </mxGeometry>
        </mxCell>
        <mxCell id="9UCDNFC30UPHbU_CSCfX-134" value="21" style="shape=partialRectangle;html=1;whiteSpace=wrap;connectable=0;overflow=hidden;fillColor=none;top=0;left=0;bottom=0;right=0;pointerEvents=1;" vertex="1" parent="9UCDNFC30UPHbU_CSCfX-132">
          <mxGeometry x="60" width="60" height="40" as="geometry">
            <mxRectangle width="60" height="40" as="alternateBounds" />
          </mxGeometry>
        </mxCell>
        <mxCell id="9UCDNFC30UPHbU_CSCfX-135" value="" style="shape=tableRow;horizontal=0;startSize=0;swimlaneHead=0;swimlaneBody=0;top=0;left=0;bottom=0;right=0;collapsible=0;dropTarget=0;fillColor=none;points=[[0,0.5],[1,0.5]];portConstraint=eastwest;" vertex="1" parent="9UCDNFC30UPHbU_CSCfX-131">
          <mxGeometry y="40" width="120" height="40" as="geometry" />
        </mxCell>
        <mxCell id="9UCDNFC30UPHbU_CSCfX-136" value="tx_ids" style="shape=partialRectangle;html=1;whiteSpace=wrap;connectable=0;overflow=hidden;fillColor=none;top=0;left=0;bottom=0;right=0;pointerEvents=1;" vertex="1" parent="9UCDNFC30UPHbU_CSCfX-135">
          <mxGeometry width="60" height="40" as="geometry">
            <mxRectangle width="60" height="40" as="alternateBounds" />
          </mxGeometry>
        </mxCell>
        <mxCell id="9UCDNFC30UPHbU_CSCfX-137" value="[20,21]" style="shape=partialRectangle;html=1;whiteSpace=wrap;connectable=0;overflow=hidden;fillColor=none;top=0;left=0;bottom=0;right=0;pointerEvents=1;" vertex="1" parent="9UCDNFC30UPHbU_CSCfX-135">
          <mxGeometry x="60" width="60" height="40" as="geometry">
            <mxRectangle width="60" height="40" as="alternateBounds" />
          </mxGeometry>
        </mxCell>
        <mxCell id="9UCDNFC30UPHbU_CSCfX-138" value="" style="shape=tableRow;horizontal=0;startSize=0;swimlaneHead=0;swimlaneBody=0;top=0;left=0;bottom=0;right=0;collapsible=0;dropTarget=0;fillColor=none;points=[[0,0.5],[1,0.5]];portConstraint=eastwest;" vertex="1" parent="9UCDNFC30UPHbU_CSCfX-131">
          <mxGeometry y="80" width="120" height="40" as="geometry" />
        </mxCell>
        <mxCell id="9UCDNFC30UPHbU_CSCfX-139" value="max_tx_id" style="shape=partialRectangle;html=1;whiteSpace=wrap;connectable=0;overflow=hidden;fillColor=none;top=0;left=0;bottom=0;right=0;pointerEvents=1;" vertex="1" parent="9UCDNFC30UPHbU_CSCfX-138">
          <mxGeometry width="60" height="40" as="geometry">
            <mxRectangle width="60" height="40" as="alternateBounds" />
          </mxGeometry>
        </mxCell>
        <mxCell id="9UCDNFC30UPHbU_CSCfX-140" value="22" style="shape=partialRectangle;html=1;whiteSpace=wrap;connectable=0;overflow=hidden;fillColor=none;top=0;left=0;bottom=0;right=0;pointerEvents=1;" vertex="1" parent="9UCDNFC30UPHbU_CSCfX-138">
          <mxGeometry x="60" width="60" height="40" as="geometry">
            <mxRectangle width="60" height="40" as="alternateBounds" />
          </mxGeometry>
        </mxCell>
        <mxCell id="9UCDNFC30UPHbU_CSCfX-141" value="" style="shape=tableRow;horizontal=0;startSize=0;swimlaneHead=0;swimlaneBody=0;top=0;left=0;bottom=0;right=0;collapsible=0;dropTarget=0;fillColor=none;points=[[0,0.5],[1,0.5]];portConstraint=eastwest;" vertex="1" parent="9UCDNFC30UPHbU_CSCfX-131">
          <mxGeometry y="120" width="120" height="40" as="geometry" />
        </mxCell>
        <mxCell id="9UCDNFC30UPHbU_CSCfX-142" value="min_tx_id" style="shape=partialRectangle;html=1;whiteSpace=wrap;connectable=0;overflow=hidden;fillColor=none;top=0;left=0;bottom=0;right=0;pointerEvents=1;" vertex="1" parent="9UCDNFC30UPHbU_CSCfX-141">
          <mxGeometry width="60" height="40" as="geometry">
            <mxRectangle width="60" height="40" as="alternateBounds" />
          </mxGeometry>
        </mxCell>
        <mxCell id="9UCDNFC30UPHbU_CSCfX-143" value="20" style="shape=partialRectangle;html=1;whiteSpace=wrap;connectable=0;overflow=hidden;fillColor=none;top=0;left=0;bottom=0;right=0;pointerEvents=1;" vertex="1" parent="9UCDNFC30UPHbU_CSCfX-141">
          <mxGeometry x="60" width="60" height="40" as="geometry">
            <mxRectangle width="60" height="40" as="alternateBounds" />
          </mxGeometry>
        </mxCell>
        <mxCell id="9UCDNFC30UPHbU_CSCfX-154" value="读视图" style="text;strokeColor=none;fillColor=none;html=1;fontSize=24;fontStyle=1;verticalAlign=middle;align=center;" vertex="1" parent="1">
          <mxGeometry x="692" y="600" width="100" height="40" as="geometry" />
        </mxCell>
        <mxCell id="9UCDNFC30UPHbU_CSCfX-155" value="事物B" style="text;strokeColor=none;fillColor=none;html=1;fontSize=24;fontStyle=1;verticalAlign=middle;align=center;" vertex="1" parent="1">
          <mxGeometry x="826" y="550" width="100" height="40" as="geometry" />
        </mxCell>
        <mxCell id="9UCDNFC30UPHbU_CSCfX-156" value="" style="rounded=1;whiteSpace=wrap;html=1;strokeColor=#97D077;" vertex="1" parent="1">
          <mxGeometry x="816" y="710" width="280" height="120" as="geometry" />
        </mxCell>
        <mxCell id="9UCDNFC30UPHbU_CSCfX-157" value="" style="shape=table;startSize=0;container=1;collapsible=0;childLayout=tableLayout;strokeColor=#97D077;" vertex="1" parent="1">
          <mxGeometry x="832" y="630" width="220" height="60" as="geometry" />
        </mxCell>
        <mxCell id="9UCDNFC30UPHbU_CSCfX-158" value="" style="shape=tableRow;horizontal=0;startSize=0;swimlaneHead=0;swimlaneBody=0;top=0;left=0;bottom=0;right=0;collapsible=0;dropTarget=0;fillColor=none;points=[[0,0.5],[1,0.5]];portConstraint=eastwest;strokeColor=#97D077;" vertex="1" parent="9UCDNFC30UPHbU_CSCfX-157">
          <mxGeometry width="220" height="20" as="geometry" />
        </mxCell>
        <mxCell id="9UCDNFC30UPHbU_CSCfX-159" value="数据" style="shape=partialRectangle;html=1;whiteSpace=wrap;connectable=0;overflow=hidden;fillColor=none;top=0;left=0;bottom=0;right=0;pointerEvents=1;strokeColor=#97D077;" vertex="1" parent="9UCDNFC30UPHbU_CSCfX-158">
          <mxGeometry width="100" height="20" as="geometry">
            <mxRectangle width="100" height="20" as="alternateBounds" />
          </mxGeometry>
        </mxCell>
        <mxCell id="9UCDNFC30UPHbU_CSCfX-160" value="tx_id" style="shape=partialRectangle;html=1;whiteSpace=wrap;connectable=0;overflow=hidden;fillColor=none;top=0;left=0;bottom=0;right=0;pointerEvents=1;strokeColor=#97D077;" vertex="1" parent="9UCDNFC30UPHbU_CSCfX-158">
          <mxGeometry x="100" width="60" height="20" as="geometry">
            <mxRectangle width="60" height="20" as="alternateBounds" />
          </mxGeometry>
        </mxCell>
        <mxCell id="9UCDNFC30UPHbU_CSCfX-161" value="roll_ptr" style="shape=partialRectangle;html=1;whiteSpace=wrap;connectable=0;overflow=hidden;fillColor=none;top=0;left=0;bottom=0;right=0;pointerEvents=1;strokeColor=#97D077;" vertex="1" parent="9UCDNFC30UPHbU_CSCfX-158">
          <mxGeometry x="160" width="60" height="20" as="geometry">
            <mxRectangle width="60" height="20" as="alternateBounds" />
          </mxGeometry>
        </mxCell>
        <mxCell id="9UCDNFC30UPHbU_CSCfX-162" value="" style="shape=tableRow;horizontal=0;startSize=0;swimlaneHead=0;swimlaneBody=0;top=0;left=0;bottom=0;right=0;collapsible=0;dropTarget=0;fillColor=none;points=[[0,0.5],[1,0.5]];portConstraint=eastwest;strokeColor=#97D077;" vertex="1" parent="9UCDNFC30UPHbU_CSCfX-157">
          <mxGeometry y="20" width="220" height="40" as="geometry" />
        </mxCell>
        <mxCell id="9UCDNFC30UPHbU_CSCfX-163" value="def" style="shape=partialRectangle;html=1;whiteSpace=wrap;connectable=0;overflow=hidden;fillColor=none;top=0;left=0;bottom=0;right=0;pointerEvents=1;strokeColor=#97D077;" vertex="1" parent="9UCDNFC30UPHbU_CSCfX-162">
          <mxGeometry width="100" height="40" as="geometry">
            <mxRectangle width="100" height="40" as="alternateBounds" />
          </mxGeometry>
        </mxCell>
        <mxCell id="9UCDNFC30UPHbU_CSCfX-164" value="20" style="shape=partialRectangle;html=1;whiteSpace=wrap;connectable=0;overflow=hidden;fillColor=none;top=0;left=0;bottom=0;right=0;pointerEvents=1;strokeColor=#97D077;" vertex="1" parent="9UCDNFC30UPHbU_CSCfX-162">
          <mxGeometry x="100" width="60" height="40" as="geometry">
            <mxRectangle width="60" height="40" as="alternateBounds" />
          </mxGeometry>
        </mxCell>
        <mxCell id="9UCDNFC30UPHbU_CSCfX-165" value="1" style="shape=partialRectangle;html=1;whiteSpace=wrap;connectable=0;overflow=hidden;fillColor=none;top=0;left=0;bottom=0;right=0;pointerEvents=1;strokeColor=#97D077;" vertex="1" parent="9UCDNFC30UPHbU_CSCfX-162">
          <mxGeometry x="160" width="60" height="40" as="geometry">
            <mxRectangle width="60" height="40" as="alternateBounds" />
          </mxGeometry>
        </mxCell>
        <mxCell id="9UCDNFC30UPHbU_CSCfX-166" value="" style="shape=table;startSize=0;container=1;collapsible=0;childLayout=tableLayout;strokeColor=#97D077;" vertex="1" parent="1">
          <mxGeometry x="832" y="750" width="220" height="60" as="geometry" />
        </mxCell>
        <mxCell id="9UCDNFC30UPHbU_CSCfX-167" value="" style="shape=tableRow;horizontal=0;startSize=0;swimlaneHead=0;swimlaneBody=0;top=0;left=0;bottom=0;right=0;collapsible=0;dropTarget=0;fillColor=none;points=[[0,0.5],[1,0.5]];portConstraint=eastwest;strokeColor=#97D077;" vertex="1" parent="9UCDNFC30UPHbU_CSCfX-166">
          <mxGeometry width="220" height="20" as="geometry" />
        </mxCell>
        <mxCell id="9UCDNFC30UPHbU_CSCfX-168" value="数据" style="shape=partialRectangle;html=1;whiteSpace=wrap;connectable=0;overflow=hidden;fillColor=none;top=0;left=0;bottom=0;right=0;pointerEvents=1;strokeColor=#97D077;" vertex="1" parent="9UCDNFC30UPHbU_CSCfX-167">
          <mxGeometry width="100" height="20" as="geometry">
            <mxRectangle width="100" height="20" as="alternateBounds" />
          </mxGeometry>
        </mxCell>
        <mxCell id="9UCDNFC30UPHbU_CSCfX-169" value="tx_id" style="shape=partialRectangle;html=1;whiteSpace=wrap;connectable=0;overflow=hidden;fillColor=none;top=0;left=0;bottom=0;right=0;pointerEvents=1;strokeColor=#97D077;" vertex="1" parent="9UCDNFC30UPHbU_CSCfX-167">
          <mxGeometry x="100" width="60" height="20" as="geometry">
            <mxRectangle width="60" height="20" as="alternateBounds" />
          </mxGeometry>
        </mxCell>
        <mxCell id="9UCDNFC30UPHbU_CSCfX-170" value="roll_ptr" style="shape=partialRectangle;html=1;whiteSpace=wrap;connectable=0;overflow=hidden;fillColor=none;top=0;left=0;bottom=0;right=0;pointerEvents=1;strokeColor=#97D077;" vertex="1" parent="9UCDNFC30UPHbU_CSCfX-167">
          <mxGeometry x="160" width="60" height="20" as="geometry">
            <mxRectangle width="60" height="20" as="alternateBounds" />
          </mxGeometry>
        </mxCell>
        <mxCell id="9UCDNFC30UPHbU_CSCfX-171" value="" style="shape=tableRow;horizontal=0;startSize=0;swimlaneHead=0;swimlaneBody=0;top=0;left=0;bottom=0;right=0;collapsible=0;dropTarget=0;fillColor=none;points=[[0,0.5],[1,0.5]];portConstraint=eastwest;strokeColor=#97D077;" vertex="1" parent="9UCDNFC30UPHbU_CSCfX-166">
          <mxGeometry y="20" width="220" height="40" as="geometry" />
        </mxCell>
        <mxCell id="9UCDNFC30UPHbU_CSCfX-172" value="abc" style="shape=partialRectangle;html=1;whiteSpace=wrap;connectable=0;overflow=hidden;fillColor=none;top=0;left=0;bottom=0;right=0;pointerEvents=1;strokeColor=#97D077;" vertex="1" parent="9UCDNFC30UPHbU_CSCfX-171">
          <mxGeometry width="100" height="40" as="geometry">
            <mxRectangle width="100" height="40" as="alternateBounds" />
          </mxGeometry>
        </mxCell>
        <mxCell id="9UCDNFC30UPHbU_CSCfX-173" value="19" style="shape=partialRectangle;html=1;whiteSpace=wrap;connectable=0;overflow=hidden;fillColor=none;top=0;left=0;bottom=0;right=0;pointerEvents=1;strokeColor=#97D077;" vertex="1" parent="9UCDNFC30UPHbU_CSCfX-171">
          <mxGeometry x="100" width="60" height="40" as="geometry">
            <mxRectangle width="60" height="40" as="alternateBounds" />
          </mxGeometry>
        </mxCell>
        <mxCell id="9UCDNFC30UPHbU_CSCfX-174" value="" style="shape=partialRectangle;html=1;whiteSpace=wrap;connectable=0;overflow=hidden;fillColor=none;top=0;left=0;bottom=0;right=0;pointerEvents=1;strokeColor=#97D077;" vertex="1" parent="9UCDNFC30UPHbU_CSCfX-171">
          <mxGeometry x="160" width="60" height="40" as="geometry">
            <mxRectangle width="60" height="40" as="alternateBounds" />
          </mxGeometry>
        </mxCell>
        <mxCell id="9UCDNFC30UPHbU_CSCfX-175" style="edgeStyle=orthogonalEdgeStyle;rounded=0;orthogonalLoop=1;jettySize=auto;html=1;exitX=1;exitY=0.5;exitDx=0;exitDy=0;entryX=1;entryY=0.5;entryDx=0;entryDy=0;" edge="1" parent="1" source="9UCDNFC30UPHbU_CSCfX-162" target="9UCDNFC30UPHbU_CSCfX-171">
          <mxGeometry relative="1" as="geometry" />
        </mxCell>
        <mxCell id="9UCDNFC30UPHbU_CSCfX-176" value="undolog" style="text;strokeColor=none;fillColor=none;html=1;fontSize=24;fontStyle=1;verticalAlign=middle;align=center;" vertex="1" parent="1">
          <mxGeometry x="892" y="710" width="100" height="40" as="geometry" />
        </mxCell>
        <mxCell id="9UCDNFC30UPHbU_CSCfX-177" value="" style="rounded=1;whiteSpace=wrap;html=1;strokeColor=#666666;fillColor=#f5f5f5;fontColor=#333333;" vertex="1" parent="1">
          <mxGeometry x="114" y="1110" width="464" height="320" as="geometry" />
        </mxCell>
        <mxCell id="9UCDNFC30UPHbU_CSCfX-178" value="" style="shape=table;startSize=0;container=1;collapsible=0;childLayout=tableLayout;" vertex="1" parent="1">
          <mxGeometry x="140" y="1220" width="120" height="160" as="geometry" />
        </mxCell>
        <mxCell id="9UCDNFC30UPHbU_CSCfX-179" value="" style="shape=tableRow;horizontal=0;startSize=0;swimlaneHead=0;swimlaneBody=0;top=0;left=0;bottom=0;right=0;collapsible=0;dropTarget=0;fillColor=none;points=[[0,0.5],[1,0.5]];portConstraint=eastwest;" vertex="1" parent="9UCDNFC30UPHbU_CSCfX-178">
          <mxGeometry width="120" height="40" as="geometry" />
        </mxCell>
        <mxCell id="9UCDNFC30UPHbU_CSCfX-180" value="c_tx_id" style="shape=partialRectangle;html=1;whiteSpace=wrap;connectable=0;overflow=hidden;fillColor=none;top=0;left=0;bottom=0;right=0;pointerEvents=1;" vertex="1" parent="9UCDNFC30UPHbU_CSCfX-179">
          <mxGeometry width="60" height="40" as="geometry">
            <mxRectangle width="60" height="40" as="alternateBounds" />
          </mxGeometry>
        </mxCell>
        <mxCell id="9UCDNFC30UPHbU_CSCfX-181" value="21" style="shape=partialRectangle;html=1;whiteSpace=wrap;connectable=0;overflow=hidden;fillColor=none;top=0;left=0;bottom=0;right=0;pointerEvents=1;" vertex="1" parent="9UCDNFC30UPHbU_CSCfX-179">
          <mxGeometry x="60" width="60" height="40" as="geometry">
            <mxRectangle width="60" height="40" as="alternateBounds" />
          </mxGeometry>
        </mxCell>
        <mxCell id="9UCDNFC30UPHbU_CSCfX-182" value="" style="shape=tableRow;horizontal=0;startSize=0;swimlaneHead=0;swimlaneBody=0;top=0;left=0;bottom=0;right=0;collapsible=0;dropTarget=0;fillColor=none;points=[[0,0.5],[1,0.5]];portConstraint=eastwest;" vertex="1" parent="9UCDNFC30UPHbU_CSCfX-178">
          <mxGeometry y="40" width="120" height="40" as="geometry" />
        </mxCell>
        <mxCell id="9UCDNFC30UPHbU_CSCfX-183" value="tx_ids" style="shape=partialRectangle;html=1;whiteSpace=wrap;connectable=0;overflow=hidden;fillColor=none;top=0;left=0;bottom=0;right=0;pointerEvents=1;" vertex="1" parent="9UCDNFC30UPHbU_CSCfX-182">
          <mxGeometry width="60" height="40" as="geometry">
            <mxRectangle width="60" height="40" as="alternateBounds" />
          </mxGeometry>
        </mxCell>
        <mxCell id="9UCDNFC30UPHbU_CSCfX-184" value="[20,21]" style="shape=partialRectangle;html=1;whiteSpace=wrap;connectable=0;overflow=hidden;fillColor=none;top=0;left=0;bottom=0;right=0;pointerEvents=1;" vertex="1" parent="9UCDNFC30UPHbU_CSCfX-182">
          <mxGeometry x="60" width="60" height="40" as="geometry">
            <mxRectangle width="60" height="40" as="alternateBounds" />
          </mxGeometry>
        </mxCell>
        <mxCell id="9UCDNFC30UPHbU_CSCfX-185" value="" style="shape=tableRow;horizontal=0;startSize=0;swimlaneHead=0;swimlaneBody=0;top=0;left=0;bottom=0;right=0;collapsible=0;dropTarget=0;fillColor=none;points=[[0,0.5],[1,0.5]];portConstraint=eastwest;" vertex="1" parent="9UCDNFC30UPHbU_CSCfX-178">
          <mxGeometry y="80" width="120" height="40" as="geometry" />
        </mxCell>
        <mxCell id="9UCDNFC30UPHbU_CSCfX-186" value="max_tx_id" style="shape=partialRectangle;html=1;whiteSpace=wrap;connectable=0;overflow=hidden;fillColor=none;top=0;left=0;bottom=0;right=0;pointerEvents=1;" vertex="1" parent="9UCDNFC30UPHbU_CSCfX-185">
          <mxGeometry width="60" height="40" as="geometry">
            <mxRectangle width="60" height="40" as="alternateBounds" />
          </mxGeometry>
        </mxCell>
        <mxCell id="9UCDNFC30UPHbU_CSCfX-187" value="22" style="shape=partialRectangle;html=1;whiteSpace=wrap;connectable=0;overflow=hidden;fillColor=none;top=0;left=0;bottom=0;right=0;pointerEvents=1;" vertex="1" parent="9UCDNFC30UPHbU_CSCfX-185">
          <mxGeometry x="60" width="60" height="40" as="geometry">
            <mxRectangle width="60" height="40" as="alternateBounds" />
          </mxGeometry>
        </mxCell>
        <mxCell id="9UCDNFC30UPHbU_CSCfX-188" value="" style="shape=tableRow;horizontal=0;startSize=0;swimlaneHead=0;swimlaneBody=0;top=0;left=0;bottom=0;right=0;collapsible=0;dropTarget=0;fillColor=none;points=[[0,0.5],[1,0.5]];portConstraint=eastwest;" vertex="1" parent="9UCDNFC30UPHbU_CSCfX-178">
          <mxGeometry y="120" width="120" height="40" as="geometry" />
        </mxCell>
        <mxCell id="9UCDNFC30UPHbU_CSCfX-189" value="min_tx_id" style="shape=partialRectangle;html=1;whiteSpace=wrap;connectable=0;overflow=hidden;fillColor=none;top=0;left=0;bottom=0;right=0;pointerEvents=1;" vertex="1" parent="9UCDNFC30UPHbU_CSCfX-188">
          <mxGeometry width="60" height="40" as="geometry">
            <mxRectangle width="60" height="40" as="alternateBounds" />
          </mxGeometry>
        </mxCell>
        <mxCell id="9UCDNFC30UPHbU_CSCfX-190" value="20" style="shape=partialRectangle;html=1;whiteSpace=wrap;connectable=0;overflow=hidden;fillColor=none;top=0;left=0;bottom=0;right=0;pointerEvents=1;" vertex="1" parent="9UCDNFC30UPHbU_CSCfX-188">
          <mxGeometry x="60" width="60" height="40" as="geometry">
            <mxRectangle width="60" height="40" as="alternateBounds" />
          </mxGeometry>
        </mxCell>
        <mxCell id="9UCDNFC30UPHbU_CSCfX-191" value="读视图" style="text;strokeColor=none;fillColor=none;html=1;fontSize=24;fontStyle=1;verticalAlign=middle;align=center;" vertex="1" parent="1">
          <mxGeometry x="150" y="1170" width="100" height="40" as="geometry" />
        </mxCell>
        <mxCell id="9UCDNFC30UPHbU_CSCfX-192" value="事物B" style="text;strokeColor=none;fillColor=none;html=1;fontSize=24;fontStyle=1;verticalAlign=middle;align=center;" vertex="1" parent="1">
          <mxGeometry x="284" y="1120" width="100" height="40" as="geometry" />
        </mxCell>
        <mxCell id="9UCDNFC30UPHbU_CSCfX-193" value="" style="rounded=1;whiteSpace=wrap;html=1;strokeColor=#97D077;" vertex="1" parent="1">
          <mxGeometry x="274" y="1280" width="280" height="120" as="geometry" />
        </mxCell>
        <mxCell id="9UCDNFC30UPHbU_CSCfX-194" value="" style="shape=table;startSize=0;container=1;collapsible=0;childLayout=tableLayout;strokeColor=#97D077;" vertex="1" parent="1">
          <mxGeometry x="290" y="1200" width="220" height="60" as="geometry" />
        </mxCell>
        <mxCell id="9UCDNFC30UPHbU_CSCfX-195" value="" style="shape=tableRow;horizontal=0;startSize=0;swimlaneHead=0;swimlaneBody=0;top=0;left=0;bottom=0;right=0;collapsible=0;dropTarget=0;fillColor=none;points=[[0,0.5],[1,0.5]];portConstraint=eastwest;strokeColor=#97D077;" vertex="1" parent="9UCDNFC30UPHbU_CSCfX-194">
          <mxGeometry width="220" height="20" as="geometry" />
        </mxCell>
        <mxCell id="9UCDNFC30UPHbU_CSCfX-196" value="数据" style="shape=partialRectangle;html=1;whiteSpace=wrap;connectable=0;overflow=hidden;fillColor=none;top=0;left=0;bottom=0;right=0;pointerEvents=1;strokeColor=#97D077;" vertex="1" parent="9UCDNFC30UPHbU_CSCfX-195">
          <mxGeometry width="100" height="20" as="geometry">
            <mxRectangle width="100" height="20" as="alternateBounds" />
          </mxGeometry>
        </mxCell>
        <mxCell id="9UCDNFC30UPHbU_CSCfX-197" value="tx_id" style="shape=partialRectangle;html=1;whiteSpace=wrap;connectable=0;overflow=hidden;fillColor=none;top=0;left=0;bottom=0;right=0;pointerEvents=1;strokeColor=#97D077;" vertex="1" parent="9UCDNFC30UPHbU_CSCfX-195">
          <mxGeometry x="100" width="60" height="20" as="geometry">
            <mxRectangle width="60" height="20" as="alternateBounds" />
          </mxGeometry>
        </mxCell>
        <mxCell id="9UCDNFC30UPHbU_CSCfX-198" value="roll_ptr" style="shape=partialRectangle;html=1;whiteSpace=wrap;connectable=0;overflow=hidden;fillColor=none;top=0;left=0;bottom=0;right=0;pointerEvents=1;strokeColor=#97D077;" vertex="1" parent="9UCDNFC30UPHbU_CSCfX-195">
          <mxGeometry x="160" width="60" height="20" as="geometry">
            <mxRectangle width="60" height="20" as="alternateBounds" />
          </mxGeometry>
        </mxCell>
        <mxCell id="9UCDNFC30UPHbU_CSCfX-199" value="" style="shape=tableRow;horizontal=0;startSize=0;swimlaneHead=0;swimlaneBody=0;top=0;left=0;bottom=0;right=0;collapsible=0;dropTarget=0;fillColor=none;points=[[0,0.5],[1,0.5]];portConstraint=eastwest;strokeColor=#97D077;" vertex="1" parent="9UCDNFC30UPHbU_CSCfX-194">
          <mxGeometry y="20" width="220" height="40" as="geometry" />
        </mxCell>
        <mxCell id="9UCDNFC30UPHbU_CSCfX-200" value="def" style="shape=partialRectangle;html=1;whiteSpace=wrap;connectable=0;overflow=hidden;fillColor=none;top=0;left=0;bottom=0;right=0;pointerEvents=1;strokeColor=#97D077;" vertex="1" parent="9UCDNFC30UPHbU_CSCfX-199">
          <mxGeometry width="100" height="40" as="geometry">
            <mxRectangle width="100" height="40" as="alternateBounds" />
          </mxGeometry>
        </mxCell>
        <mxCell id="9UCDNFC30UPHbU_CSCfX-201" value="20" style="shape=partialRectangle;html=1;whiteSpace=wrap;connectable=0;overflow=hidden;fillColor=none;top=0;left=0;bottom=0;right=0;pointerEvents=1;strokeColor=#97D077;" vertex="1" parent="9UCDNFC30UPHbU_CSCfX-199">
          <mxGeometry x="100" width="60" height="40" as="geometry">
            <mxRectangle width="60" height="40" as="alternateBounds" />
          </mxGeometry>
        </mxCell>
        <mxCell id="9UCDNFC30UPHbU_CSCfX-202" value="1" style="shape=partialRectangle;html=1;whiteSpace=wrap;connectable=0;overflow=hidden;fillColor=none;top=0;left=0;bottom=0;right=0;pointerEvents=1;strokeColor=#97D077;" vertex="1" parent="9UCDNFC30UPHbU_CSCfX-199">
          <mxGeometry x="160" width="60" height="40" as="geometry">
            <mxRectangle width="60" height="40" as="alternateBounds" />
          </mxGeometry>
        </mxCell>
        <mxCell id="9UCDNFC30UPHbU_CSCfX-203" value="" style="shape=table;startSize=0;container=1;collapsible=0;childLayout=tableLayout;strokeColor=#97D077;" vertex="1" parent="1">
          <mxGeometry x="290" y="1320" width="220" height="60" as="geometry" />
        </mxCell>
        <mxCell id="9UCDNFC30UPHbU_CSCfX-204" value="" style="shape=tableRow;horizontal=0;startSize=0;swimlaneHead=0;swimlaneBody=0;top=0;left=0;bottom=0;right=0;collapsible=0;dropTarget=0;fillColor=none;points=[[0,0.5],[1,0.5]];portConstraint=eastwest;strokeColor=#97D077;" vertex="1" parent="9UCDNFC30UPHbU_CSCfX-203">
          <mxGeometry width="220" height="20" as="geometry" />
        </mxCell>
        <mxCell id="9UCDNFC30UPHbU_CSCfX-205" value="数据" style="shape=partialRectangle;html=1;whiteSpace=wrap;connectable=0;overflow=hidden;fillColor=none;top=0;left=0;bottom=0;right=0;pointerEvents=1;strokeColor=#97D077;" vertex="1" parent="9UCDNFC30UPHbU_CSCfX-204">
          <mxGeometry width="100" height="20" as="geometry">
            <mxRectangle width="100" height="20" as="alternateBounds" />
          </mxGeometry>
        </mxCell>
        <mxCell id="9UCDNFC30UPHbU_CSCfX-206" value="tx_id" style="shape=partialRectangle;html=1;whiteSpace=wrap;connectable=0;overflow=hidden;fillColor=none;top=0;left=0;bottom=0;right=0;pointerEvents=1;strokeColor=#97D077;" vertex="1" parent="9UCDNFC30UPHbU_CSCfX-204">
          <mxGeometry x="100" width="60" height="20" as="geometry">
            <mxRectangle width="60" height="20" as="alternateBounds" />
          </mxGeometry>
        </mxCell>
        <mxCell id="9UCDNFC30UPHbU_CSCfX-207" value="roll_ptr" style="shape=partialRectangle;html=1;whiteSpace=wrap;connectable=0;overflow=hidden;fillColor=none;top=0;left=0;bottom=0;right=0;pointerEvents=1;strokeColor=#97D077;" vertex="1" parent="9UCDNFC30UPHbU_CSCfX-204">
          <mxGeometry x="160" width="60" height="20" as="geometry">
            <mxRectangle width="60" height="20" as="alternateBounds" />
          </mxGeometry>
        </mxCell>
        <mxCell id="9UCDNFC30UPHbU_CSCfX-208" value="" style="shape=tableRow;horizontal=0;startSize=0;swimlaneHead=0;swimlaneBody=0;top=0;left=0;bottom=0;right=0;collapsible=0;dropTarget=0;fillColor=none;points=[[0,0.5],[1,0.5]];portConstraint=eastwest;strokeColor=#97D077;" vertex="1" parent="9UCDNFC30UPHbU_CSCfX-203">
          <mxGeometry y="20" width="220" height="40" as="geometry" />
        </mxCell>
        <mxCell id="9UCDNFC30UPHbU_CSCfX-209" value="abc" style="shape=partialRectangle;html=1;whiteSpace=wrap;connectable=0;overflow=hidden;fillColor=none;top=0;left=0;bottom=0;right=0;pointerEvents=1;strokeColor=#97D077;" vertex="1" parent="9UCDNFC30UPHbU_CSCfX-208">
          <mxGeometry width="100" height="40" as="geometry">
            <mxRectangle width="100" height="40" as="alternateBounds" />
          </mxGeometry>
        </mxCell>
        <mxCell id="9UCDNFC30UPHbU_CSCfX-210" value="19" style="shape=partialRectangle;html=1;whiteSpace=wrap;connectable=0;overflow=hidden;fillColor=none;top=0;left=0;bottom=0;right=0;pointerEvents=1;strokeColor=#97D077;" vertex="1" parent="9UCDNFC30UPHbU_CSCfX-208">
          <mxGeometry x="100" width="60" height="40" as="geometry">
            <mxRectangle width="60" height="40" as="alternateBounds" />
          </mxGeometry>
        </mxCell>
        <mxCell id="9UCDNFC30UPHbU_CSCfX-211" value="" style="shape=partialRectangle;html=1;whiteSpace=wrap;connectable=0;overflow=hidden;fillColor=none;top=0;left=0;bottom=0;right=0;pointerEvents=1;strokeColor=#97D077;" vertex="1" parent="9UCDNFC30UPHbU_CSCfX-208">
          <mxGeometry x="160" width="60" height="40" as="geometry">
            <mxRectangle width="60" height="40" as="alternateBounds" />
          </mxGeometry>
        </mxCell>
        <mxCell id="9UCDNFC30UPHbU_CSCfX-212" style="edgeStyle=orthogonalEdgeStyle;rounded=0;orthogonalLoop=1;jettySize=auto;html=1;exitX=1;exitY=0.5;exitDx=0;exitDy=0;entryX=1;entryY=0.5;entryDx=0;entryDy=0;" edge="1" parent="1" source="9UCDNFC30UPHbU_CSCfX-199" target="9UCDNFC30UPHbU_CSCfX-208">
          <mxGeometry relative="1" as="geometry" />
        </mxCell>
        <mxCell id="9UCDNFC30UPHbU_CSCfX-213" value="undolog" style="text;strokeColor=none;fillColor=none;html=1;fontSize=24;fontStyle=1;verticalAlign=middle;align=center;" vertex="1" parent="1">
          <mxGeometry x="350" y="1280" width="100" height="40" as="geometry" />
        </mxCell>
        <mxCell id="9UCDNFC30UPHbU_CSCfX-215" value="" style="rounded=1;whiteSpace=wrap;html=1;strokeColor=#666666;fillColor=#f5f5f5;fontColor=#333333;" vertex="1" parent="1">
          <mxGeometry x="740" y="1110" width="464" height="320" as="geometry" />
        </mxCell>
        <mxCell id="9UCDNFC30UPHbU_CSCfX-216" value="" style="shape=table;startSize=0;container=1;collapsible=0;childLayout=tableLayout;" vertex="1" parent="1">
          <mxGeometry x="766" y="1220" width="120" height="160" as="geometry" />
        </mxCell>
        <mxCell id="9UCDNFC30UPHbU_CSCfX-217" value="" style="shape=tableRow;horizontal=0;startSize=0;swimlaneHead=0;swimlaneBody=0;top=0;left=0;bottom=0;right=0;collapsible=0;dropTarget=0;fillColor=none;points=[[0,0.5],[1,0.5]];portConstraint=eastwest;" vertex="1" parent="9UCDNFC30UPHbU_CSCfX-216">
          <mxGeometry width="120" height="40" as="geometry" />
        </mxCell>
        <mxCell id="9UCDNFC30UPHbU_CSCfX-218" value="c_tx_id" style="shape=partialRectangle;html=1;whiteSpace=wrap;connectable=0;overflow=hidden;fillColor=none;top=0;left=0;bottom=0;right=0;pointerEvents=1;" vertex="1" parent="9UCDNFC30UPHbU_CSCfX-217">
          <mxGeometry width="60" height="40" as="geometry">
            <mxRectangle width="60" height="40" as="alternateBounds" />
          </mxGeometry>
        </mxCell>
        <mxCell id="9UCDNFC30UPHbU_CSCfX-219" value="21" style="shape=partialRectangle;html=1;whiteSpace=wrap;connectable=0;overflow=hidden;fillColor=none;top=0;left=0;bottom=0;right=0;pointerEvents=1;" vertex="1" parent="9UCDNFC30UPHbU_CSCfX-217">
          <mxGeometry x="60" width="60" height="40" as="geometry">
            <mxRectangle width="60" height="40" as="alternateBounds" />
          </mxGeometry>
        </mxCell>
        <mxCell id="9UCDNFC30UPHbU_CSCfX-220" value="" style="shape=tableRow;horizontal=0;startSize=0;swimlaneHead=0;swimlaneBody=0;top=0;left=0;bottom=0;right=0;collapsible=0;dropTarget=0;fillColor=none;points=[[0,0.5],[1,0.5]];portConstraint=eastwest;" vertex="1" parent="9UCDNFC30UPHbU_CSCfX-216">
          <mxGeometry y="40" width="120" height="40" as="geometry" />
        </mxCell>
        <mxCell id="9UCDNFC30UPHbU_CSCfX-221" value="tx_ids" style="shape=partialRectangle;html=1;whiteSpace=wrap;connectable=0;overflow=hidden;fillColor=none;top=0;left=0;bottom=0;right=0;pointerEvents=1;" vertex="1" parent="9UCDNFC30UPHbU_CSCfX-220">
          <mxGeometry width="60" height="40" as="geometry">
            <mxRectangle width="60" height="40" as="alternateBounds" />
          </mxGeometry>
        </mxCell>
        <mxCell id="9UCDNFC30UPHbU_CSCfX-222" value="[21]" style="shape=partialRectangle;html=1;whiteSpace=wrap;connectable=0;overflow=hidden;fillColor=none;top=0;left=0;bottom=0;right=0;pointerEvents=1;" vertex="1" parent="9UCDNFC30UPHbU_CSCfX-220">
          <mxGeometry x="60" width="60" height="40" as="geometry">
            <mxRectangle width="60" height="40" as="alternateBounds" />
          </mxGeometry>
        </mxCell>
        <mxCell id="9UCDNFC30UPHbU_CSCfX-223" value="" style="shape=tableRow;horizontal=0;startSize=0;swimlaneHead=0;swimlaneBody=0;top=0;left=0;bottom=0;right=0;collapsible=0;dropTarget=0;fillColor=none;points=[[0,0.5],[1,0.5]];portConstraint=eastwest;" vertex="1" parent="9UCDNFC30UPHbU_CSCfX-216">
          <mxGeometry y="80" width="120" height="40" as="geometry" />
        </mxCell>
        <mxCell id="9UCDNFC30UPHbU_CSCfX-224" value="max_tx_id" style="shape=partialRectangle;html=1;whiteSpace=wrap;connectable=0;overflow=hidden;fillColor=none;top=0;left=0;bottom=0;right=0;pointerEvents=1;" vertex="1" parent="9UCDNFC30UPHbU_CSCfX-223">
          <mxGeometry width="60" height="40" as="geometry">
            <mxRectangle width="60" height="40" as="alternateBounds" />
          </mxGeometry>
        </mxCell>
        <mxCell id="9UCDNFC30UPHbU_CSCfX-225" value="22" style="shape=partialRectangle;html=1;whiteSpace=wrap;connectable=0;overflow=hidden;fillColor=none;top=0;left=0;bottom=0;right=0;pointerEvents=1;" vertex="1" parent="9UCDNFC30UPHbU_CSCfX-223">
          <mxGeometry x="60" width="60" height="40" as="geometry">
            <mxRectangle width="60" height="40" as="alternateBounds" />
          </mxGeometry>
        </mxCell>
        <mxCell id="9UCDNFC30UPHbU_CSCfX-226" value="" style="shape=tableRow;horizontal=0;startSize=0;swimlaneHead=0;swimlaneBody=0;top=0;left=0;bottom=0;right=0;collapsible=0;dropTarget=0;fillColor=none;points=[[0,0.5],[1,0.5]];portConstraint=eastwest;" vertex="1" parent="9UCDNFC30UPHbU_CSCfX-216">
          <mxGeometry y="120" width="120" height="40" as="geometry" />
        </mxCell>
        <mxCell id="9UCDNFC30UPHbU_CSCfX-227" value="min_tx_id" style="shape=partialRectangle;html=1;whiteSpace=wrap;connectable=0;overflow=hidden;fillColor=none;top=0;left=0;bottom=0;right=0;pointerEvents=1;" vertex="1" parent="9UCDNFC30UPHbU_CSCfX-226">
          <mxGeometry width="60" height="40" as="geometry">
            <mxRectangle width="60" height="40" as="alternateBounds" />
          </mxGeometry>
        </mxCell>
        <mxCell id="9UCDNFC30UPHbU_CSCfX-228" value="21" style="shape=partialRectangle;html=1;whiteSpace=wrap;connectable=0;overflow=hidden;fillColor=none;top=0;left=0;bottom=0;right=0;pointerEvents=1;" vertex="1" parent="9UCDNFC30UPHbU_CSCfX-226">
          <mxGeometry x="60" width="60" height="40" as="geometry">
            <mxRectangle width="60" height="40" as="alternateBounds" />
          </mxGeometry>
        </mxCell>
        <mxCell id="9UCDNFC30UPHbU_CSCfX-229" value="读视图" style="text;strokeColor=none;fillColor=none;html=1;fontSize=24;fontStyle=1;verticalAlign=middle;align=center;" vertex="1" parent="1">
          <mxGeometry x="776" y="1170" width="100" height="40" as="geometry" />
        </mxCell>
        <mxCell id="9UCDNFC30UPHbU_CSCfX-230" value="事物B" style="text;strokeColor=none;fillColor=none;html=1;fontSize=24;fontStyle=1;verticalAlign=middle;align=center;" vertex="1" parent="1">
          <mxGeometry x="910" y="1120" width="100" height="40" as="geometry" />
        </mxCell>
        <mxCell id="9UCDNFC30UPHbU_CSCfX-231" value="" style="rounded=1;whiteSpace=wrap;html=1;strokeColor=#97D077;" vertex="1" parent="1">
          <mxGeometry x="900" y="1280" width="280" height="120" as="geometry" />
        </mxCell>
        <mxCell id="9UCDNFC30UPHbU_CSCfX-232" value="" style="shape=table;startSize=0;container=1;collapsible=0;childLayout=tableLayout;strokeColor=#97D077;" vertex="1" parent="1">
          <mxGeometry x="916" y="1200" width="220" height="60" as="geometry" />
        </mxCell>
        <mxCell id="9UCDNFC30UPHbU_CSCfX-233" value="" style="shape=tableRow;horizontal=0;startSize=0;swimlaneHead=0;swimlaneBody=0;top=0;left=0;bottom=0;right=0;collapsible=0;dropTarget=0;fillColor=none;points=[[0,0.5],[1,0.5]];portConstraint=eastwest;strokeColor=#97D077;" vertex="1" parent="9UCDNFC30UPHbU_CSCfX-232">
          <mxGeometry width="220" height="20" as="geometry" />
        </mxCell>
        <mxCell id="9UCDNFC30UPHbU_CSCfX-234" value="数据" style="shape=partialRectangle;html=1;whiteSpace=wrap;connectable=0;overflow=hidden;fillColor=none;top=0;left=0;bottom=0;right=0;pointerEvents=1;strokeColor=#97D077;" vertex="1" parent="9UCDNFC30UPHbU_CSCfX-233">
          <mxGeometry width="100" height="20" as="geometry">
            <mxRectangle width="100" height="20" as="alternateBounds" />
          </mxGeometry>
        </mxCell>
        <mxCell id="9UCDNFC30UPHbU_CSCfX-235" value="tx_id" style="shape=partialRectangle;html=1;whiteSpace=wrap;connectable=0;overflow=hidden;fillColor=none;top=0;left=0;bottom=0;right=0;pointerEvents=1;strokeColor=#97D077;" vertex="1" parent="9UCDNFC30UPHbU_CSCfX-233">
          <mxGeometry x="100" width="60" height="20" as="geometry">
            <mxRectangle width="60" height="20" as="alternateBounds" />
          </mxGeometry>
        </mxCell>
        <mxCell id="9UCDNFC30UPHbU_CSCfX-236" value="roll_ptr" style="shape=partialRectangle;html=1;whiteSpace=wrap;connectable=0;overflow=hidden;fillColor=none;top=0;left=0;bottom=0;right=0;pointerEvents=1;strokeColor=#97D077;" vertex="1" parent="9UCDNFC30UPHbU_CSCfX-233">
          <mxGeometry x="160" width="60" height="20" as="geometry">
            <mxRectangle width="60" height="20" as="alternateBounds" />
          </mxGeometry>
        </mxCell>
        <mxCell id="9UCDNFC30UPHbU_CSCfX-237" value="" style="shape=tableRow;horizontal=0;startSize=0;swimlaneHead=0;swimlaneBody=0;top=0;left=0;bottom=0;right=0;collapsible=0;dropTarget=0;fillColor=none;points=[[0,0.5],[1,0.5]];portConstraint=eastwest;strokeColor=#97D077;" vertex="1" parent="9UCDNFC30UPHbU_CSCfX-232">
          <mxGeometry y="20" width="220" height="40" as="geometry" />
        </mxCell>
        <mxCell id="9UCDNFC30UPHbU_CSCfX-238" value="def" style="shape=partialRectangle;html=1;whiteSpace=wrap;connectable=0;overflow=hidden;fillColor=none;top=0;left=0;bottom=0;right=0;pointerEvents=1;strokeColor=#97D077;" vertex="1" parent="9UCDNFC30UPHbU_CSCfX-237">
          <mxGeometry width="100" height="40" as="geometry">
            <mxRectangle width="100" height="40" as="alternateBounds" />
          </mxGeometry>
        </mxCell>
        <mxCell id="9UCDNFC30UPHbU_CSCfX-239" value="20" style="shape=partialRectangle;html=1;whiteSpace=wrap;connectable=0;overflow=hidden;fillColor=none;top=0;left=0;bottom=0;right=0;pointerEvents=1;strokeColor=#97D077;" vertex="1" parent="9UCDNFC30UPHbU_CSCfX-237">
          <mxGeometry x="100" width="60" height="40" as="geometry">
            <mxRectangle width="60" height="40" as="alternateBounds" />
          </mxGeometry>
        </mxCell>
        <mxCell id="9UCDNFC30UPHbU_CSCfX-240" value="1" style="shape=partialRectangle;html=1;whiteSpace=wrap;connectable=0;overflow=hidden;fillColor=none;top=0;left=0;bottom=0;right=0;pointerEvents=1;strokeColor=#97D077;" vertex="1" parent="9UCDNFC30UPHbU_CSCfX-237">
          <mxGeometry x="160" width="60" height="40" as="geometry">
            <mxRectangle width="60" height="40" as="alternateBounds" />
          </mxGeometry>
        </mxCell>
        <mxCell id="9UCDNFC30UPHbU_CSCfX-241" value="" style="shape=table;startSize=0;container=1;collapsible=0;childLayout=tableLayout;strokeColor=#97D077;" vertex="1" parent="1">
          <mxGeometry x="916" y="1320" width="220" height="60" as="geometry" />
        </mxCell>
        <mxCell id="9UCDNFC30UPHbU_CSCfX-242" value="" style="shape=tableRow;horizontal=0;startSize=0;swimlaneHead=0;swimlaneBody=0;top=0;left=0;bottom=0;right=0;collapsible=0;dropTarget=0;fillColor=none;points=[[0,0.5],[1,0.5]];portConstraint=eastwest;strokeColor=#97D077;" vertex="1" parent="9UCDNFC30UPHbU_CSCfX-241">
          <mxGeometry width="220" height="20" as="geometry" />
        </mxCell>
        <mxCell id="9UCDNFC30UPHbU_CSCfX-243" value="数据" style="shape=partialRectangle;html=1;whiteSpace=wrap;connectable=0;overflow=hidden;fillColor=none;top=0;left=0;bottom=0;right=0;pointerEvents=1;strokeColor=#97D077;" vertex="1" parent="9UCDNFC30UPHbU_CSCfX-242">
          <mxGeometry width="100" height="20" as="geometry">
            <mxRectangle width="100" height="20" as="alternateBounds" />
          </mxGeometry>
        </mxCell>
        <mxCell id="9UCDNFC30UPHbU_CSCfX-244" value="tx_id" style="shape=partialRectangle;html=1;whiteSpace=wrap;connectable=0;overflow=hidden;fillColor=none;top=0;left=0;bottom=0;right=0;pointerEvents=1;strokeColor=#97D077;" vertex="1" parent="9UCDNFC30UPHbU_CSCfX-242">
          <mxGeometry x="100" width="60" height="20" as="geometry">
            <mxRectangle width="60" height="20" as="alternateBounds" />
          </mxGeometry>
        </mxCell>
        <mxCell id="9UCDNFC30UPHbU_CSCfX-245" value="roll_ptr" style="shape=partialRectangle;html=1;whiteSpace=wrap;connectable=0;overflow=hidden;fillColor=none;top=0;left=0;bottom=0;right=0;pointerEvents=1;strokeColor=#97D077;" vertex="1" parent="9UCDNFC30UPHbU_CSCfX-242">
          <mxGeometry x="160" width="60" height="20" as="geometry">
            <mxRectangle width="60" height="20" as="alternateBounds" />
          </mxGeometry>
        </mxCell>
        <mxCell id="9UCDNFC30UPHbU_CSCfX-246" value="" style="shape=tableRow;horizontal=0;startSize=0;swimlaneHead=0;swimlaneBody=0;top=0;left=0;bottom=0;right=0;collapsible=0;dropTarget=0;fillColor=none;points=[[0,0.5],[1,0.5]];portConstraint=eastwest;strokeColor=#97D077;" vertex="1" parent="9UCDNFC30UPHbU_CSCfX-241">
          <mxGeometry y="20" width="220" height="40" as="geometry" />
        </mxCell>
        <mxCell id="9UCDNFC30UPHbU_CSCfX-247" value="abc" style="shape=partialRectangle;html=1;whiteSpace=wrap;connectable=0;overflow=hidden;fillColor=none;top=0;left=0;bottom=0;right=0;pointerEvents=1;strokeColor=#97D077;" vertex="1" parent="9UCDNFC30UPHbU_CSCfX-246">
          <mxGeometry width="100" height="40" as="geometry">
            <mxRectangle width="100" height="40" as="alternateBounds" />
          </mxGeometry>
        </mxCell>
        <mxCell id="9UCDNFC30UPHbU_CSCfX-248" value="19" style="shape=partialRectangle;html=1;whiteSpace=wrap;connectable=0;overflow=hidden;fillColor=none;top=0;left=0;bottom=0;right=0;pointerEvents=1;strokeColor=#97D077;" vertex="1" parent="9UCDNFC30UPHbU_CSCfX-246">
          <mxGeometry x="100" width="60" height="40" as="geometry">
            <mxRectangle width="60" height="40" as="alternateBounds" />
          </mxGeometry>
        </mxCell>
        <mxCell id="9UCDNFC30UPHbU_CSCfX-249" value="" style="shape=partialRectangle;html=1;whiteSpace=wrap;connectable=0;overflow=hidden;fillColor=none;top=0;left=0;bottom=0;right=0;pointerEvents=1;strokeColor=#97D077;" vertex="1" parent="9UCDNFC30UPHbU_CSCfX-246">
          <mxGeometry x="160" width="60" height="40" as="geometry">
            <mxRectangle width="60" height="40" as="alternateBounds" />
          </mxGeometry>
        </mxCell>
        <mxCell id="9UCDNFC30UPHbU_CSCfX-250" style="edgeStyle=orthogonalEdgeStyle;rounded=0;orthogonalLoop=1;jettySize=auto;html=1;exitX=1;exitY=0.5;exitDx=0;exitDy=0;entryX=1;entryY=0.5;entryDx=0;entryDy=0;" edge="1" parent="1" source="9UCDNFC30UPHbU_CSCfX-237" target="9UCDNFC30UPHbU_CSCfX-246">
          <mxGeometry relative="1" as="geometry" />
        </mxCell>
        <mxCell id="9UCDNFC30UPHbU_CSCfX-251" value="undolog" style="text;strokeColor=none;fillColor=none;html=1;fontSize=24;fontStyle=1;verticalAlign=middle;align=center;" vertex="1" parent="1">
          <mxGeometry x="976" y="1280" width="100" height="40" as="geometry" />
        </mxCell>
        <mxCell id="9UCDNFC30UPHbU_CSCfX-253" value="" style="shape=flexArrow;endArrow=classic;html=1;rounded=0;exitX=1;exitY=0.5;exitDx=0;exitDy=0;" edge="1" parent="1" source="9UCDNFC30UPHbU_CSCfX-177" target="9UCDNFC30UPHbU_CSCfX-215">
          <mxGeometry width="50" height="50" relative="1" as="geometry">
            <mxPoint x="580" y="1310" as="sourcePoint" />
            <mxPoint x="630" y="1260" as="targetPoint" />
          </mxGeometry>
        </mxCell>
        <mxCell id="9UCDNFC30UPHbU_CSCfX-254" value="读取数据&lt;br&gt;重新生成读视图" style="text;html=1;strokeColor=none;fillColor=none;align=center;verticalAlign=middle;whiteSpace=wrap;rounded=0;" vertex="1" parent="1">
          <mxGeometry x="610" y="1230" width="88" height="30" as="geometry" />
        </mxCell>
      </root>
    </mxGraphModel>
  </diagram>
</mxfile>
